<svg version="1.1" id="Layer_1" xmlns="http://www.w3.org/2000/svg" xmlns:xlink="http://www.w3.org/1999/xlink" viewBox="-29.7 -29.7 356.40 356.40" xml:space="preserve" width="64px" height="64px" fill="#b9a6a6" stroke="#b9a6a6"><g id="SVGRepo_bgCarrier" stroke-width="0"></g><g id="SVGRepo_tracerCarrier" stroke-linecap="round" stroke-linejoin="round"></g><g id="SVGRepo_iconCarrier"> <g> <g> <g> <circle style="fill:#5E345E;" cx="148.5" cy="148.5" r="148.5"></circle> </g> </g> <g> <path style="fill:#432444;" d="M68.5,247.5l42.116,44.616c12.095,3.182,24.79,4.884,37.884,4.884 c82.014,0,148.5-66.486,148.5-148.5c0-0.68-0.017-1.357-0.026-2.035L233.5,66L68.5,247.5z"></path> </g> <g> <rect x="63.5" y="63.646" style="fill:#EF717A;" width="170" height="152.854"></rect> </g> <g> <path style="fill:#D8566F;" d="M63.5,216.5v15.197c0,14.941,12.099,27.06,27.04,27.085l115.831,0.192 c14.976,0.025,27.13-12.109,27.13-27.085V216.5H63.5z"></path> </g> <g> <g> <path style="fill:#ECF0F1;" d="M176.41,83.961c-3.59,0-6.5-2.91-6.5-6.5V49.55c0-11.806-9.604-21.41-21.41-21.41 s-21.41,9.604-21.41,21.41v27.911c0,3.59-2.91,6.5-6.5,6.5s-6.5-2.91-6.5-6.5V49.55c0-18.974,15.437-34.41,34.41-34.41 s34.41,15.437,34.41,34.41v27.911C182.91,81.051,180,83.961,176.41,83.961z"></path> </g> </g> </g> </g></svg>